<svg width="32" height="22" viewBox="0 0 32 22" fill="none" xmlns="http://www.w3.org/2000/svg">
<g id="@2x">
<g id="Mail">
<path id="mail" fill-rule="evenodd" clip-rule="evenodd" d="M1.55447 21.4312L10.3314 12.3421L12.4556 14.4808C12.939 14.9689 13.5143 15.3564 14.1482 15.6209C14.7822 15.8853 15.4624 16.0215 16.1493 16.0215C16.8362 16.0215 17.5163 15.8853 18.1503 15.6209C18.7843 15.3564 19.3596 14.9689 19.8429 14.4808L21.7643 12.5462L30.3548 21.442C30.2178 21.471 30.0753 21.4859 29.9296 21.4859H2.02901C1.86586 21.4859 1.70685 21.4668 1.55447 21.4312ZM31.9449 2.29433C31.981 2.44754 32 2.60696 32 2.77094V19.4155C32 19.9496 31.7975 20.4366 31.4658 20.8039L22.6392 11.6646L31.9445 2.29391L31.9449 2.29433ZM0 19.8287V3.18502C0 2.8256 0.091512 2.48729 0.252591 2.19246L9.45602 11.4605L0.464602 20.7712C0.230937 20.5023 0.070876 20.1778 0 19.8287ZM31.2497 1.17588L18.9771 13.4481C17.3601 15.0655 14.7381 15.0655 13.1211 13.4481L0.78676 1.1146C1.13252 0.854969 1.56275 0.70093 2.02901 0.70093H29.9292C30.4112 0.700214 30.8783 0.868411 31.2493 1.1763L31.2497 1.17588Z" fill="#00EBFA"/>
</g>
</g>
</svg>
