<svg width="40" height="40" viewBox="0 0 40 40" fill="none" xmlns="http://www.w3.org/2000/svg">
<g id="Call">
<path id="Vector" d="M19.9493 16.8866C19.9493 17.26 20.2493 17.5533 20.616 17.5533C21.376 17.5533 21.9893 18.1733 21.9893 18.9266C21.9893 19.2933 22.2893 19.5933 22.656 19.5933C23.0227 19.5933 23.3227 19.2933 23.3227 18.9266C23.3227 17.4333 22.1093 16.22 20.616 16.22C20.2493 16.22 19.9493 16.52 19.9493 16.8866ZM30.8027 19.5933C31.176 19.5933 31.4693 19.2933 31.4693 18.9266C31.4693 12.94 26.6027 8.0733 20.616 8.0733C20.2493 8.0733 19.9493 8.3733 19.9493 8.73997C19.9493 9.10664 20.2493 9.40664 20.616 9.40664C25.8693 9.40664 30.136 13.68 30.136 18.9266C30.136 19.2933 30.436 19.5933 30.8027 19.5933Z" fill="#00EBFA"/>
<path id="Vector_2" d="M26.0627 18.9267C26.0627 19.2933 26.3627 19.5933 26.7293 19.5933C27.096 19.5933 27.396 19.2933 27.396 18.9267C27.396 15.1867 24.356 12.1467 20.616 12.1467C20.2493 12.1467 19.9493 12.4467 19.9493 12.8133C19.9493 13.1867 20.2493 13.48 20.616 13.48C23.6227 13.48 26.0627 15.9267 26.0627 18.9267ZM20.616 4C20.2493 4 19.9493 4.3 19.9493 4.66667C19.9493 5.03333 20.2493 5.33333 20.616 5.33333C28.116 5.33333 34.216 11.4333 34.216 18.9267C34.216 19.2933 34.5093 19.5933 34.8827 19.5933C35.2493 19.5933 35.5493 19.2933 35.5493 18.9267C35.5493 10.6933 28.8493 4 20.616 4ZM27.1293 25.9533L26.256 26.4267C24.7827 27.2333 22.916 26.96 21.7227 25.7667L14.6827 18.7267C13.4893 17.5333 13.216 15.6667 14.0227 14.1867L14.496 13.32C15.0293 12.3333 15.2227 11.2267 15.0627 10.12C14.9115 9.01557 14.4008 7.99169 13.6093 7.20667C12.636 6.23333 11.3427 5.7 9.96268 5.7C8.58268 5.7 7.28268 6.23333 6.30934 7.20667L5.96935 7.55333C4.16935 9.35333 3.96268 12.4533 5.38268 16.2933C6.72268 19.96 9.42268 23.9333 12.9693 27.48C18.376 32.8867 24.396 36 28.716 36C30.4227 36 31.8693 35.5133 32.896 34.4867L33.2427 34.14C33.7227 33.6605 34.1035 33.0909 34.3632 32.4641C34.6229 31.8372 34.7564 31.1652 34.756 30.4867C34.7467 29.1202 34.2036 27.8115 33.2427 26.84C31.636 25.2333 29.1227 24.8733 27.1293 25.9533Z" fill="#00EBFA"/>
</g>
</svg>
