<svg width="36" height="36" viewBox="0 0 36 36" fill="none" xmlns="http://www.w3.org/2000/svg">
<rect width="36" height="36" fill="#F5F5F5"/>
<g id="Blue" clip-path="url(#clip0_1_278)">
<rect width="2552" height="3560" transform="translate(-846 -937)" fill="#292A2E"/>
<g id="Design">
</g>
<g id="INFO">
<g id="web solution" clip-path="url(#clip1_1_278)">
<g id="XMLID_50_">
<path id="XMLID_378_" d="M30.7195 5.47734C27.3234 2.10234 22.8024 0.246094 18 0.246094C13.1977 0.246094 8.6836 2.10234 5.28751 5.47734C1.88438 8.85234 0.0140686 13.3383 0.0140686 18.1125C0.0140686 22.8867 1.88438 27.3727 5.28751 30.7477C8.6836 34.1156 13.1977 35.9789 18 35.9789C22.8024 35.9789 27.3164 34.1227 30.7125 30.7477C34.1156 27.3727 35.9859 22.8867 35.9859 18.1125C35.9859 13.3383 34.1156 8.85234 30.7195 5.47734ZM32.0344 12.375H25.3617C25.3547 12.3539 25.3547 12.3328 25.3477 12.3117C24.7008 8.81719 23.7516 5.87812 23.0133 3.90234C27.0984 5.32266 30.3891 8.43047 32.0344 12.375ZM15.968 3.19922C16.6359 3.10781 17.3109 3.06563 18 3.06563C18.5695 3.06563 19.125 3.10078 19.6734 3.15703C20.2781 4.55625 21.6352 8.00156 22.493 12.375H13.7883C14.5195 7.50937 15.7359 3.87422 15.968 3.19922ZM2.82657 18.1125C2.82657 17.1141 2.92501 16.1367 3.11485 15.1875H10.6172C10.357 18.007 10.3359 20.7211 10.5539 23.2734H3.74766C3.15001 21.6633 2.82657 19.9266 2.82657 18.1125ZM5.13985 26.0859H10.9055C11.257 28.2305 11.7844 30.2555 12.5016 32.1328C9.44298 30.9516 6.86251 28.807 5.13985 26.0859ZM10.9477 12.375H3.97266C5.58985 8.50078 8.78907 5.44219 12.7617 3.98672C12.2344 5.78672 11.4609 8.76094 10.9477 12.375ZM20.025 33.0258C19.3641 33.1102 18.6891 33.1594 18.007 33.1594C17.3039 33.1594 16.6149 33.1102 15.9328 33.0187C14.8641 30.7969 14.175 28.4414 13.7672 26.0859H22.6336C22.1344 28.4273 21.3047 30.7828 20.025 33.0258ZM23.0695 23.2734H13.3875C13.1273 20.3977 13.2117 17.6203 13.4438 15.1875H22.95C23.2594 17.6273 23.3789 20.4047 23.0695 23.2734ZM23.6461 32.0836C24.4758 30.2062 25.1016 28.2023 25.5023 26.0859H30.8672C29.1727 28.7719 26.6414 30.8883 23.6461 32.0836ZM25.9102 23.2734L25.9313 23.0203C26.1563 20.5312 26.107 17.9016 25.7836 15.1875H32.8922C33.082 16.1367 33.1805 17.1141 33.1805 18.1125C33.1805 19.9266 32.857 21.6633 32.2594 23.2734H25.9102Z" fill="#00EBFA"/>
</g>
</g>
</g>
</g>
<defs>
<clipPath id="clip0_1_278">
<rect width="2552" height="3560" fill="white" transform="translate(-846 -937)"/>
</clipPath>
<clipPath id="clip1_1_278">
<rect width="36" height="36" fill="white"/>
</clipPath>
</defs>
</svg>
